<mxfile host="app.diagrams.net" modified="2021-12-22T15:45:16.062Z" agent="5.0 (Windows NT 10.0; Win64; x64) AppleWebKit/537.36 (KHTML, like Gecko) Chrome/96.0.4664.110 Safari/537.36 Edg/96.0.1054.62" etag="3RRVopijJd9LWUhEWadF" version="16.0.3" type="github">
  <diagram id="JY7Stdh2d2HlyZrbISg0" name="Page-1">
    <mxGraphModel dx="868" dy="482" grid="1" gridSize="10" guides="1" tooltips="1" connect="1" arrows="1" fold="1" page="1" pageScale="1" pageWidth="900" pageHeight="1600" math="0" shadow="0">
      <root>
        <mxCell id="0" />
        <mxCell id="1" parent="0" />
        <mxCell id="EV95_e7Tc5w0sM-das4L-1" value="START" style="ellipse;whiteSpace=wrap;html=1;" parent="1" vertex="1">
          <mxGeometry x="839.5" y="41" width="120" height="40" as="geometry" />
        </mxCell>
        <mxCell id="EV95_e7Tc5w0sM-das4L-2" value="" style="endArrow=classic;html=1;rounded=0;exitX=0.5;exitY=1;exitDx=0;exitDy=0;entryX=0.5;entryY=0;entryDx=0;entryDy=0;" parent="1" source="EV95_e7Tc5w0sM-das4L-1" target="EV95_e7Tc5w0sM-das4L-31" edge="1">
          <mxGeometry width="50" height="50" relative="1" as="geometry">
            <mxPoint x="876" y="91" as="sourcePoint" />
            <mxPoint x="896" y="121" as="targetPoint" />
            <Array as="points" />
          </mxGeometry>
        </mxCell>
        <mxCell id="EV95_e7Tc5w0sM-das4L-9" value="" style="edgeStyle=orthogonalEdgeStyle;rounded=0;orthogonalLoop=1;jettySize=auto;html=1;" parent="1" source="EV95_e7Tc5w0sM-das4L-4" target="EV95_e7Tc5w0sM-das4L-8" edge="1">
          <mxGeometry relative="1" as="geometry" />
        </mxCell>
        <mxCell id="EV95_e7Tc5w0sM-das4L-4" value="Prompting the user to Enter administrator password" style="shape=parallelogram;perimeter=parallelogramPerimeter;whiteSpace=wrap;html=1;fixedSize=1;" parent="1" vertex="1">
          <mxGeometry x="789.5" y="208" width="220" height="40" as="geometry" />
        </mxCell>
        <mxCell id="EV95_e7Tc5w0sM-das4L-23" value="" style="edgeStyle=orthogonalEdgeStyle;rounded=0;orthogonalLoop=1;jettySize=auto;html=1;" parent="1" source="EV95_e7Tc5w0sM-das4L-8" target="EV95_e7Tc5w0sM-das4L-22" edge="1">
          <mxGeometry relative="1" as="geometry" />
        </mxCell>
        <mxCell id="EV95_e7Tc5w0sM-das4L-44" value="" style="edgeStyle=none;rounded=0;orthogonalLoop=1;jettySize=auto;html=1;" parent="1" source="EV95_e7Tc5w0sM-das4L-8" target="EV95_e7Tc5w0sM-das4L-43" edge="1">
          <mxGeometry relative="1" as="geometry" />
        </mxCell>
        <mxCell id="EV95_e7Tc5w0sM-das4L-8" value="Password is correct" style="rhombus;whiteSpace=wrap;html=1;" parent="1" vertex="1">
          <mxGeometry x="849.5" y="278" width="100" height="80" as="geometry" />
        </mxCell>
        <mxCell id="EV95_e7Tc5w0sM-das4L-28" value="" style="edgeStyle=none;rounded=0;orthogonalLoop=1;jettySize=auto;html=1;entryX=0.5;entryY=0;entryDx=0;entryDy=0;" parent="1" source="EV95_e7Tc5w0sM-das4L-22" target="EV95_e7Tc5w0sM-das4L-27" edge="1">
          <mxGeometry relative="1" as="geometry">
            <mxPoint x="899.6666666666667" y="579.3333333333334" as="targetPoint" />
          </mxGeometry>
        </mxCell>
        <mxCell id="EV95_e7Tc5w0sM-das4L-22" value="&lt;div style=&quot;text-align: justify&quot;&gt;Displaying main menu:&lt;/div&gt;&lt;div style=&quot;text-align: justify&quot;&gt;1. Add Information&lt;/div&gt;&lt;div style=&quot;text-align: justify&quot;&gt;2. View Information&lt;/div&gt;&lt;div style=&quot;text-align: justify&quot;&gt;&lt;span&gt;3. Search&lt;/span&gt;&lt;/div&gt;&lt;div style=&quot;text-align: justify&quot;&gt;4. Edit Information&lt;/div&gt;&lt;div style=&quot;text-align: justify&quot;&gt;5. Delete Information&lt;/div&gt;&lt;div style=&quot;text-align: justify&quot;&gt;6. Staff Information&lt;/div&gt;&lt;div style=&quot;text-align: justify&quot;&gt;&lt;span&gt;7. Expense Calculation&lt;/span&gt;&lt;/div&gt;&lt;div style=&quot;text-align: justify&quot;&gt;8. Save &amp;amp; Exit&lt;/div&gt;" style="shape=parallelogram;perimeter=parallelogramPerimeter;whiteSpace=wrap;html=1;fixedSize=1;align=center;" parent="1" vertex="1">
          <mxGeometry x="814.5" y="398" width="170" height="150" as="geometry" />
        </mxCell>
        <mxCell id="EV95_e7Tc5w0sM-das4L-24" value="YES" style="text;html=1;strokeColor=none;fillColor=none;align=center;verticalAlign=middle;whiteSpace=wrap;rounded=0;" parent="1" vertex="1">
          <mxGeometry x="886" y="358" width="60" height="30" as="geometry" />
        </mxCell>
        <mxCell id="EV95_e7Tc5w0sM-das4L-34" value="" style="edgeStyle=none;rounded=0;orthogonalLoop=1;jettySize=auto;html=1;" parent="1" source="EV95_e7Tc5w0sM-das4L-27" target="EV95_e7Tc5w0sM-das4L-33" edge="1">
          <mxGeometry relative="1" as="geometry" />
        </mxCell>
        <mxCell id="EV95_e7Tc5w0sM-das4L-27" value="Read&lt;br&gt;user input&lt;br&gt;choice" style="rhombus;whiteSpace=wrap;html=1;" parent="1" vertex="1">
          <mxGeometry x="861" y="579" width="77" height="74" as="geometry" />
        </mxCell>
        <mxCell id="EV95_e7Tc5w0sM-das4L-31" value="Check for files to fetch data from previous executions. If file doesn&#39;t exist, create the file." style="rounded=0;whiteSpace=wrap;html=1;" parent="1" vertex="1">
          <mxGeometry x="794.5" y="111" width="210" height="50" as="geometry" />
        </mxCell>
        <mxCell id="EV95_e7Tc5w0sM-das4L-32" value="" style="endArrow=classic;html=1;rounded=0;exitX=0.5;exitY=1;exitDx=0;exitDy=0;" parent="1" source="EV95_e7Tc5w0sM-das4L-31" target="EV95_e7Tc5w0sM-das4L-4" edge="1">
          <mxGeometry width="50" height="50" relative="1" as="geometry">
            <mxPoint x="866" y="351" as="sourcePoint" />
            <mxPoint x="916" y="301" as="targetPoint" />
          </mxGeometry>
        </mxCell>
        <mxCell id="EV95_e7Tc5w0sM-das4L-36" value="" style="edgeStyle=none;rounded=0;orthogonalLoop=1;jettySize=auto;html=1;" parent="1" source="EV95_e7Tc5w0sM-das4L-33" target="EV95_e7Tc5w0sM-das4L-35" edge="1">
          <mxGeometry relative="1" as="geometry" />
        </mxCell>
        <mxCell id="EV95_e7Tc5w0sM-das4L-33" value="Save the data of current execution in a file &quot;records.txt&quot;" style="whiteSpace=wrap;html=1;" parent="1" vertex="1">
          <mxGeometry x="1004.5" y="588" width="120" height="50" as="geometry" />
        </mxCell>
        <mxCell id="EV95_e7Tc5w0sM-das4L-35" value="END" style="ellipse;whiteSpace=wrap;html=1;" parent="1" vertex="1">
          <mxGeometry x="1174" y="591" width="95" height="44" as="geometry" />
        </mxCell>
        <mxCell id="EV95_e7Tc5w0sM-das4L-38" value="8" style="text;html=1;strokeColor=none;fillColor=none;align=center;verticalAlign=middle;whiteSpace=wrap;rounded=0;" parent="1" vertex="1">
          <mxGeometry x="938" y="591" width="60" height="30" as="geometry" />
        </mxCell>
        <mxCell id="EV95_e7Tc5w0sM-das4L-46" value="" style="edgeStyle=none;rounded=0;orthogonalLoop=1;jettySize=auto;html=1;entryX=1;entryY=0.5;entryDx=0;entryDy=0;" parent="1" target="EV95_e7Tc5w0sM-das4L-4" edge="1">
          <mxGeometry relative="1" as="geometry">
            <mxPoint x="1099" y="290" as="sourcePoint" />
            <mxPoint x="1085" y="220" as="targetPoint" />
            <Array as="points">
              <mxPoint x="1099" y="228" />
            </Array>
          </mxGeometry>
        </mxCell>
        <mxCell id="EV95_e7Tc5w0sM-das4L-43" value="Display that it is&lt;br&gt;Wrong&lt;br&gt;Password" style="shape=parallelogram;perimeter=parallelogramPerimeter;whiteSpace=wrap;html=1;fixedSize=1;" parent="1" vertex="1">
          <mxGeometry x="1016" y="292" width="138" height="52" as="geometry" />
        </mxCell>
        <mxCell id="EV95_e7Tc5w0sM-das4L-47" value="NO" style="text;html=1;align=center;verticalAlign=middle;resizable=0;points=[];autosize=1;strokeColor=none;fillColor=none;" parent="1" vertex="1">
          <mxGeometry x="959" y="300" width="30" height="20" as="geometry" />
        </mxCell>
        <mxCell id="EV95_e7Tc5w0sM-das4L-48" value="" style="endArrow=none;html=1;rounded=0;entryX=0.5;entryY=1;entryDx=0;entryDy=0;" parent="1" target="EV95_e7Tc5w0sM-das4L-27" edge="1">
          <mxGeometry width="50" height="50" relative="1" as="geometry">
            <mxPoint x="900" y="700" as="sourcePoint" />
            <mxPoint x="924" y="670" as="targetPoint" />
          </mxGeometry>
        </mxCell>
        <mxCell id="EV95_e7Tc5w0sM-das4L-49" value="" style="endArrow=none;html=1;rounded=0;" parent="1" edge="1">
          <mxGeometry width="50" height="50" relative="1" as="geometry">
            <mxPoint x="483" y="700" as="sourcePoint" />
            <mxPoint x="1313" y="700" as="targetPoint" />
          </mxGeometry>
        </mxCell>
        <mxCell id="EV95_e7Tc5w0sM-das4L-50" value="" style="endArrow=classic;html=1;rounded=0;entryX=0.5;entryY=0;entryDx=0;entryDy=0;" parent="1" target="EV95_e7Tc5w0sM-das4L-57" edge="1">
          <mxGeometry width="50" height="50" relative="1" as="geometry">
            <mxPoint x="483" y="700" as="sourcePoint" />
            <mxPoint x="483" y="760" as="targetPoint" />
          </mxGeometry>
        </mxCell>
        <mxCell id="EV95_e7Tc5w0sM-das4L-53" value="" style="endArrow=classic;html=1;rounded=0;entryX=0.5;entryY=0;entryDx=0;entryDy=0;" parent="1" target="EV95_e7Tc5w0sM-das4L-58" edge="1">
          <mxGeometry width="50" height="50" relative="1" as="geometry">
            <mxPoint x="623" y="700" as="sourcePoint" />
            <mxPoint x="653" y="760" as="targetPoint" />
            <Array as="points" />
          </mxGeometry>
        </mxCell>
        <mxCell id="EV95_e7Tc5w0sM-das4L-77" value="" style="edgeStyle=none;rounded=0;orthogonalLoop=1;jettySize=auto;html=1;fontColor=#3399FF;" parent="1" source="EV95_e7Tc5w0sM-das4L-57" target="EV95_e7Tc5w0sM-das4L-76" edge="1">
          <mxGeometry relative="1" as="geometry" />
        </mxCell>
        <mxCell id="EV95_e7Tc5w0sM-das4L-57" value="Enter add() function" style="rounded=0;whiteSpace=wrap;html=1;" parent="1" vertex="1">
          <mxGeometry x="423" y="760" width="120" height="60" as="geometry" />
        </mxCell>
        <mxCell id="VmY0-LltUTcVonaZBJHJ-4" value="" style="edgeStyle=none;rounded=0;orthogonalLoop=1;jettySize=auto;html=1;fontColor=#3399FF;" edge="1" parent="1" source="EV95_e7Tc5w0sM-das4L-58" target="VmY0-LltUTcVonaZBJHJ-3">
          <mxGeometry relative="1" as="geometry" />
        </mxCell>
        <mxCell id="EV95_e7Tc5w0sM-das4L-58" value="Enter view() function" style="rounded=0;whiteSpace=wrap;html=1;" parent="1" vertex="1">
          <mxGeometry x="563" y="760" width="120" height="60" as="geometry" />
        </mxCell>
        <mxCell id="EV95_e7Tc5w0sM-das4L-59" value="" style="endArrow=classic;html=1;rounded=0;entryX=0.5;entryY=0;entryDx=0;entryDy=0;" parent="1" target="EV95_e7Tc5w0sM-das4L-60" edge="1">
          <mxGeometry width="50" height="50" relative="1" as="geometry">
            <mxPoint x="760" y="700" as="sourcePoint" />
            <mxPoint x="760" y="770" as="targetPoint" />
          </mxGeometry>
        </mxCell>
        <mxCell id="VmY0-LltUTcVonaZBJHJ-6" value="" style="edgeStyle=none;rounded=0;orthogonalLoop=1;jettySize=auto;html=1;fontColor=#3399FF;" edge="1" parent="1" source="EV95_e7Tc5w0sM-das4L-60" target="VmY0-LltUTcVonaZBJHJ-5">
          <mxGeometry relative="1" as="geometry" />
        </mxCell>
        <mxCell id="EV95_e7Tc5w0sM-das4L-60" value="Enter search()&lt;br&gt;function" style="rounded=0;whiteSpace=wrap;html=1;" parent="1" vertex="1">
          <mxGeometry x="700" y="760" width="120" height="60" as="geometry" />
        </mxCell>
        <mxCell id="EV95_e7Tc5w0sM-das4L-61" value="" style="endArrow=classic;html=1;rounded=0;entryX=0.5;entryY=0;entryDx=0;entryDy=0;" parent="1" target="EV95_e7Tc5w0sM-das4L-62" edge="1">
          <mxGeometry width="50" height="50" relative="1" as="geometry">
            <mxPoint x="900" y="700" as="sourcePoint" />
            <mxPoint x="889.5" y="780" as="targetPoint" />
          </mxGeometry>
        </mxCell>
        <mxCell id="EV95_e7Tc5w0sM-das4L-62" value="Enter edit() function" style="rounded=0;whiteSpace=wrap;html=1;" parent="1" vertex="1">
          <mxGeometry x="839.5" y="760" width="120" height="60" as="geometry" />
        </mxCell>
        <mxCell id="EV95_e7Tc5w0sM-das4L-63" value="" style="endArrow=classic;html=1;rounded=0;entryX=0.5;entryY=0;entryDx=0;entryDy=0;" parent="1" target="EV95_e7Tc5w0sM-das4L-64" edge="1">
          <mxGeometry width="50" height="50" relative="1" as="geometry">
            <mxPoint x="1038" y="700" as="sourcePoint" />
            <mxPoint x="1004.5" y="800" as="targetPoint" />
          </mxGeometry>
        </mxCell>
        <mxCell id="EV95_e7Tc5w0sM-das4L-64" value="Enter delete() function" style="rounded=0;whiteSpace=wrap;html=1;" parent="1" vertex="1">
          <mxGeometry x="978" y="760" width="120" height="60" as="geometry" />
        </mxCell>
        <mxCell id="EV95_e7Tc5w0sM-das4L-65" value="Enter staff() function" style="rounded=0;whiteSpace=wrap;html=1;" parent="1" vertex="1">
          <mxGeometry x="1113" y="760" width="120" height="60" as="geometry" />
        </mxCell>
        <mxCell id="EV95_e7Tc5w0sM-das4L-66" value="" style="endArrow=classic;html=1;rounded=0;entryX=0.5;entryY=0;entryDx=0;entryDy=0;" parent="1" target="EV95_e7Tc5w0sM-das4L-65" edge="1">
          <mxGeometry width="50" height="50" relative="1" as="geometry">
            <mxPoint x="1173" y="700" as="sourcePoint" />
            <mxPoint x="1139.5" y="800" as="targetPoint" />
          </mxGeometry>
        </mxCell>
        <mxCell id="EV95_e7Tc5w0sM-das4L-67" value="Enter expense()&lt;br&gt;function" style="rounded=0;whiteSpace=wrap;html=1;" parent="1" vertex="1">
          <mxGeometry x="1253" y="760" width="120" height="60" as="geometry" />
        </mxCell>
        <mxCell id="EV95_e7Tc5w0sM-das4L-68" value="" style="endArrow=classic;html=1;rounded=0;entryX=0.5;entryY=0;entryDx=0;entryDy=0;" parent="1" target="EV95_e7Tc5w0sM-das4L-67" edge="1">
          <mxGeometry width="50" height="50" relative="1" as="geometry">
            <mxPoint x="1313" y="700" as="sourcePoint" />
            <mxPoint x="1279.5" y="800" as="targetPoint" />
          </mxGeometry>
        </mxCell>
        <mxCell id="EV95_e7Tc5w0sM-das4L-69" value="1" style="text;html=1;align=center;verticalAlign=middle;resizable=0;points=[];autosize=1;strokeColor=none;fillColor=none;" parent="1" vertex="1">
          <mxGeometry x="463" y="720" width="20" height="20" as="geometry" />
        </mxCell>
        <mxCell id="EV95_e7Tc5w0sM-das4L-70" value="2" style="text;html=1;align=center;verticalAlign=middle;resizable=0;points=[];autosize=1;strokeColor=none;fillColor=none;" parent="1" vertex="1">
          <mxGeometry x="603" y="720" width="20" height="20" as="geometry" />
        </mxCell>
        <mxCell id="EV95_e7Tc5w0sM-das4L-71" value="3" style="text;html=1;align=center;verticalAlign=middle;resizable=0;points=[];autosize=1;strokeColor=none;fillColor=none;" parent="1" vertex="1">
          <mxGeometry x="743" y="720" width="20" height="20" as="geometry" />
        </mxCell>
        <mxCell id="EV95_e7Tc5w0sM-das4L-72" value="4" style="text;html=1;align=center;verticalAlign=middle;resizable=0;points=[];autosize=1;strokeColor=none;fillColor=none;" parent="1" vertex="1">
          <mxGeometry x="880" y="720" width="20" height="20" as="geometry" />
        </mxCell>
        <mxCell id="EV95_e7Tc5w0sM-das4L-73" value="5" style="text;html=1;align=center;verticalAlign=middle;resizable=0;points=[];autosize=1;strokeColor=none;fillColor=none;" parent="1" vertex="1">
          <mxGeometry x="1016" y="720" width="20" height="20" as="geometry" />
        </mxCell>
        <mxCell id="EV95_e7Tc5w0sM-das4L-74" value="6" style="text;html=1;align=center;verticalAlign=middle;resizable=0;points=[];autosize=1;strokeColor=none;fillColor=none;" parent="1" vertex="1">
          <mxGeometry x="1154" y="720" width="20" height="20" as="geometry" />
        </mxCell>
        <mxCell id="EV95_e7Tc5w0sM-das4L-75" value="7" style="text;html=1;align=center;verticalAlign=middle;resizable=0;points=[];autosize=1;strokeColor=none;fillColor=none;" parent="1" vertex="1">
          <mxGeometry x="1293.5" y="720" width="20" height="20" as="geometry" />
        </mxCell>
        <mxCell id="VmY0-LltUTcVonaZBJHJ-2" value="" style="edgeStyle=none;rounded=0;orthogonalLoop=1;jettySize=auto;html=1;fontColor=#3399FF;entryX=0.5;entryY=0;entryDx=0;entryDy=0;" edge="1" parent="1" source="EV95_e7Tc5w0sM-das4L-76" target="VmY0-LltUTcVonaZBJHJ-12">
          <mxGeometry relative="1" as="geometry">
            <mxPoint x="483" y="1030" as="targetPoint" />
          </mxGeometry>
        </mxCell>
        <mxCell id="EV95_e7Tc5w0sM-das4L-76" value="&lt;div&gt;&lt;span&gt;&amp;nbsp;Display the No. &lt;br&gt;&amp;nbsp; of existing &lt;br&gt;records and ask &lt;br&gt;to enter No. of&lt;br&gt;&amp;nbsp;new records&lt;/span&gt;&lt;/div&gt;" style="shape=parallelogram;perimeter=parallelogramPerimeter;whiteSpace=wrap;html=1;fixedSize=1;rounded=0;align=center;" parent="1" vertex="1">
          <mxGeometry x="423" y="870" width="120" height="90" as="geometry" />
        </mxCell>
        <mxCell id="VmY0-LltUTcVonaZBJHJ-3" value="Display all the existing records" style="shape=parallelogram;perimeter=parallelogramPerimeter;whiteSpace=wrap;html=1;fixedSize=1;rounded=0;" vertex="1" parent="1">
          <mxGeometry x="563" y="870" width="120" height="90" as="geometry" />
        </mxCell>
        <mxCell id="VmY0-LltUTcVonaZBJHJ-8" value="" style="edgeStyle=none;rounded=0;orthogonalLoop=1;jettySize=auto;html=1;fontColor=#3399FF;" edge="1" parent="1" source="VmY0-LltUTcVonaZBJHJ-5" target="VmY0-LltUTcVonaZBJHJ-7">
          <mxGeometry relative="1" as="geometry" />
        </mxCell>
        <mxCell id="VmY0-LltUTcVonaZBJHJ-5" value="Prompt the user &lt;br&gt;to enter the &lt;br&gt;search term" style="shape=parallelogram;perimeter=parallelogramPerimeter;whiteSpace=wrap;html=1;fixedSize=1;rounded=0;align=center;" vertex="1" parent="1">
          <mxGeometry x="700" y="870" width="120" height="90" as="geometry" />
        </mxCell>
        <mxCell id="VmY0-LltUTcVonaZBJHJ-10" value="" style="edgeStyle=none;rounded=0;orthogonalLoop=1;jettySize=auto;html=1;fontColor=#3399FF;" edge="1" parent="1" source="VmY0-LltUTcVonaZBJHJ-7" target="VmY0-LltUTcVonaZBJHJ-9">
          <mxGeometry relative="1" as="geometry" />
        </mxCell>
        <mxCell id="VmY0-LltUTcVonaZBJHJ-14" value="" style="edgeStyle=none;rounded=0;orthogonalLoop=1;jettySize=auto;html=1;fontColor=#000000;" edge="1" parent="1" source="VmY0-LltUTcVonaZBJHJ-7" target="VmY0-LltUTcVonaZBJHJ-13">
          <mxGeometry relative="1" as="geometry" />
        </mxCell>
        <mxCell id="VmY0-LltUTcVonaZBJHJ-7" value="Records &lt;br&gt;matching the search term &lt;br&gt;found" style="rhombus;whiteSpace=wrap;html=1;rounded=0;" vertex="1" parent="1">
          <mxGeometry x="706.5" y="1000" width="107" height="100" as="geometry" />
        </mxCell>
        <mxCell id="VmY0-LltUTcVonaZBJHJ-9" value="Display&lt;br&gt;&quot;No Records &lt;br&gt;found&quot;" style="shape=parallelogram;perimeter=parallelogramPerimeter;whiteSpace=wrap;html=1;fixedSize=1;rounded=0;" vertex="1" parent="1">
          <mxGeometry x="567" y="1025" width="120" height="60" as="geometry" />
        </mxCell>
        <mxCell id="VmY0-LltUTcVonaZBJHJ-11" value="&lt;font color=&quot;#000000&quot;&gt;NO&lt;/font&gt;" style="text;html=1;align=center;verticalAlign=middle;resizable=0;points=[];autosize=1;strokeColor=none;fillColor=none;fontColor=#3399FF;" vertex="1" parent="1">
          <mxGeometry x="687" y="1030" width="30" height="20" as="geometry" />
        </mxCell>
        <mxCell id="VmY0-LltUTcVonaZBJHJ-12" value="&lt;div&gt;Store all the &lt;br&gt;new records &lt;br&gt;details&lt;/div&gt;&lt;div&gt;in&amp;nbsp;the structure&lt;/div&gt;" style="shape=parallelogram;perimeter=parallelogramPerimeter;whiteSpace=wrap;html=1;fixedSize=1;rounded=0;fontColor=#000000;" vertex="1" parent="1">
          <mxGeometry x="423" y="1025" width="120" height="60" as="geometry" />
        </mxCell>
        <mxCell id="VmY0-LltUTcVonaZBJHJ-13" value="Display the &lt;br&gt;matching records" style="shape=parallelogram;perimeter=parallelogramPerimeter;whiteSpace=wrap;html=1;fixedSize=1;rounded=0;" vertex="1" parent="1">
          <mxGeometry x="700" y="1160" width="120" height="60" as="geometry" />
        </mxCell>
        <mxCell id="VmY0-LltUTcVonaZBJHJ-15" value="YES" style="text;html=1;align=center;verticalAlign=middle;resizable=0;points=[];autosize=1;strokeColor=none;fillColor=none;fontColor=#000000;" vertex="1" parent="1">
          <mxGeometry x="723" y="1120" width="40" height="20" as="geometry" />
        </mxCell>
      </root>
    </mxGraphModel>
  </diagram>
</mxfile>
